<svg id="visual" viewBox="0 0 1440 320" width="1440" height="320" xmlns="http://www.w3.org/2000/svg" xmlns:xlink="http://www.w3.org/1999/xlink" version="1.1"><path d="M0 192L206 223L411 196L617 231L823 222L1029 192L1234 193L1440 186L1440 321L1234 321L1029 321L823 321L617 321L411 321L206 321L0 321Z" fill="#f5730a"></path><path d="M0 223L206 251L411 234L617 242L823 255L1029 233L1234 255L1440 215L1440 321L1234 321L1029 321L823 321L617 321L411 321L206 321L0 321Z" fill="#da5b09"></path><path d="M0 263L206 258L411 251L617 258L823 238L1029 250L1234 234L1440 258L1440 321L1234 321L1029 321L823 321L617 321L411 321L206 321L0 321Z" fill="#be4407"></path><path d="M0 287L206 264L411 289L617 257L823 265L1029 288L1234 262L1440 284L1440 321L1234 321L1029 321L823 321L617 321L411 321L206 321L0 321Z" fill="#a32d04"></path><path d="M0 287L206 280L411 299L617 294L823 297L1029 300L1234 296L1440 300L1440 321L1234 321L1029 321L823 321L617 321L411 321L206 321L0 321Z" fill="#871400"></path></svg>