<svg id="visual" viewBox="0 0 900 600" width="900" height="600" xmlns="http://www.w3.org/2000/svg" xmlns:xlink="http://www.w3.org/1999/xlink" version="1.1"><path d="M0 169L129 151L257 170L386 171L514 191L643 243L771 151L900 165L900 0L771 0L643 0L514 0L386 0L257 0L129 0L0 0Z" fill="#f5730a"></path><path d="M0 160L129 185L257 124L386 122L514 151L643 197L771 162L900 202L900 0L771 0L643 0L514 0L386 0L257 0L129 0L0 0Z" fill="#da5b09"></path><path d="M0 113L129 150L257 126L386 154L514 160L643 91L771 145L900 102L900 0L771 0L643 0L514 0L386 0L257 0L129 0L0 0Z" fill="#be4407"></path><path d="M0 69L129 75L257 89L386 63L514 115L643 70L771 79L900 68L900 0L771 0L643 0L514 0L386 0L257 0L129 0L0 0Z" fill="#a32d04"></path><path d="M0 63L129 71L257 64L386 26L514 57L643 48L771 32L900 24L900 0L771 0L643 0L514 0L386 0L257 0L129 0L0 0Z" fill="#871400"></path></svg>