<svg id="visual" viewBox="0 0 2560 1440" width="2560" height="1440" xmlns="http://www.w3.org/2000/svg" xmlns:xlink="http://www.w3.org/1999/xlink" version="1.1"><path d="M0 1032L366 1074L731 1028L1097 1027L1463 979L1829 852L2194 1074L2560 1041L2560 1441L2194 1441L1829 1441L1463 1441L1097 1441L731 1441L366 1441L0 1441Z" fill="#f5730a"></path><path d="M0 1052L366 992L731 1139L1097 1144L1463 1074L1829 965L2194 1049L2560 951L2560 1441L2194 1441L1829 1441L1463 1441L1097 1441L731 1441L366 1441L0 1441Z" fill="#da5b09"></path><path d="M0 1166L366 1076L731 1134L1097 1066L1463 1052L1829 1218L2194 1089L2560 1193L2560 1441L2194 1441L1829 1441L1463 1441L1097 1441L731 1441L366 1441L0 1441Z" fill="#be4407"></path><path d="M0 1272L366 1256L731 1223L1097 1286L1463 1162L1829 1269L2194 1248L2560 1272L2560 1441L2194 1441L1829 1441L1463 1441L1097 1441L731 1441L366 1441L0 1441Z" fill="#a32d04"></path><path d="M0 1285L366 1266L731 1283L1097 1373L1463 1299L1829 1321L2194 1359L2560 1378L2560 1441L2194 1441L1829 1441L1463 1441L1097 1441L731 1441L366 1441L0 1441Z" fill="#871400"></path></svg>