<svg id="visual" viewBox="0 0 900 900" width="1440" height="320" xmlns="http://www.w3.org/2000/svg" xmlns:xlink="http://www.w3.org/1999/xlink" version="1.1"><path d="M0 541L129 629L257 554L386 651L514 626L643 542L771 546L900 526L900 901L771 901L643 901L514 901L386 901L257 901L129 901L0 901Z" fill="#f5730a"></path><path d="M0 629L129 709L257 659L386 682L514 719L643 656L771 718L900 606L900 901L771 901L643 901L514 901L386 901L257 901L129 901L0 901Z" fill="#da5b09"></path><path d="M0 742L129 727L257 708L386 727L514 670L643 706L771 661L900 728L900 901L771 901L643 901L514 901L386 901L257 901L129 901L0 901Z" fill="#be4407"></path><path d="M0 810L129 745L257 814L386 725L514 746L643 810L771 738L900 800L900 901L771 901L643 901L514 901L386 901L257 901L129 901L0 901Z" fill="#a32d04"></path><path d="M0 810L129 791L257 843L386 830L514 836L643 844L771 836L900 844L900 901L771 901L643 901L514 901L386 901L257 901L129 901L0 901Z" fill="#871400"></path></svg>